<?xml version="1.0" encoding="iso-8859-1"?>
<!-- Uploaded to: SVG Repo, www.svgrepo.com, Generator: SVG Repo Mixer Tools -->
<svg height="800px" width="800px" version="1.1" id="Layer_1" xmlns="http://www.w3.org/2000/svg" xmlns:xlink="http://www.w3.org/1999/xlink" 
	 viewBox="0 0 512 512" xml:space="preserve">
<path style="fill:#CEE8FA;" d="M288.367,276.318h-55.49v-66.521c0-15.324,12.422-27.745,27.745-27.745l0,0
	c15.324,0,27.745,12.422,27.745,27.745V276.318z"/>
<path style="fill:#2D527C;" d="M288.368,291.148h-55.49c-8.191,0-14.83-6.639-14.83-14.83v-66.519
	c0-23.476,19.099-42.575,42.575-42.575c23.476,0,42.575,19.099,42.575,42.575v66.519
	C303.198,284.508,296.559,291.148,288.368,291.148z M247.708,261.488h25.831v-51.69c0-7.121-5.794-12.915-12.915-12.915
	c-7.121,0-12.915,5.794-12.915,12.915V261.488z"/>
<path style="fill:#CEE8FA;" d="M343.857,276.318h-55.49v-99.817c0-15.324,12.422-27.745,27.745-27.745l0,0
	c15.324,0,27.745,12.422,27.745,27.745V276.318z"/>
<g>
	<path style="fill:#2D527C;" d="M343.857,291.148h-55.489c-8.191,0-14.83-6.639-14.83-14.83v-99.817
		c0-23.476,19.098-42.575,42.574-42.575s42.575,19.099,42.575,42.575v99.817C358.687,284.508,352.048,291.148,343.857,291.148z
		 M303.198,261.488h25.829v-84.987c0-7.121-5.794-12.915-12.915-12.915s-12.914,5.794-12.914,12.915L303.198,261.488
		L303.198,261.488z"/>
	<path style="fill:#2D527C;" d="M399.348,291.148h-55.489c-8.191,0-14.83-6.639-14.83-14.83V143.202
		c0-23.476,19.099-42.574,42.575-42.574c23.476,0,42.574,19.098,42.574,42.574v66.77c0,8.191-6.639,14.83-14.83,14.83
		c-8.191,0-14.83-6.639-14.83-14.83v-66.77c0-7.121-5.794-12.914-12.914-12.914c-7.121,0-12.915,5.794-12.915,12.914v118.285h40.659
		c8.191,0,14.83,6.639,14.83,14.83C414.178,284.507,407.538,291.148,399.348,291.148z"/>
	<path style="fill:#2D527C;" d="M316.112,391.774c-108.012,0-195.886-87.874-195.886-195.886S208.1,0,316.112,0
		S512,87.874,512,195.888c0,29.159-6.258,57.221-18.6,83.411c-3.491,7.409-12.328,10.586-19.737,7.093
		c-7.409-3.491-10.586-12.328-7.093-19.737c10.464-22.205,15.769-46.014,15.769-70.767c0-91.659-74.569-166.228-166.228-166.228
		c-91.656,0-166.225,74.569-166.225,166.228c0,91.658,74.569,166.227,166.227,166.227c34.398,0,67.4-10.411,95.436-30.108
		c6.705-4.707,15.952-3.092,20.66,3.61c4.708,6.702,3.092,15.951-3.61,20.66C395.542,379.499,356.645,391.774,316.112,391.774z"/>
	<path style="fill:#2D527C;" d="M142.604,384.226c-3.795,0-7.591-1.447-10.486-4.344c-5.791-5.791-5.791-15.181,0-20.974
		l44.838-44.838c5.791-5.791,15.181-5.791,20.974,0c5.791,5.791,5.791,15.181,0,20.974l-44.838,44.838
		C150.195,382.778,146.399,384.226,142.604,384.226z"/>
</g>
<path style="fill:#CEE8FA;" d="M69.282,497.17L14.83,442.718l80.129-80.129c15.036-15.036,39.415-15.036,54.452,0l0,0
	c15.036,15.036,15.036,39.415,0,54.452L69.282,497.17z"/>
<path style="fill:#2D527C;" d="M69.282,512c-3.795,0-7.591-1.449-10.486-4.344L4.343,453.205c-5.791-5.791-5.791-15.181,0-20.974
	l80.129-80.129c10.074-10.072,23.467-15.62,37.712-15.62s27.638,5.548,37.712,15.62c20.793,20.794,20.793,54.629,0,75.425
	l-80.129,80.129C76.872,510.551,73.077,512,69.282,512z M35.802,442.718l33.48,33.48l69.643-69.643c9.23-9.23,9.23-24.25,0-33.48
	c-4.471-4.471-10.415-6.933-16.74-6.933c-6.323,0-12.269,2.463-16.74,6.934L35.802,442.718z"/>
</svg>